# xmcd CD database file
#
# Track frame offsets:
#	150
#	50097
#	74292
#	103335
#	129202
#	168092
#	198980
#	230912
#	270222
#	310590
#
# Disc length: 4541 seconds
#
# Revision: 0
# Processed by: cddbd v1.5.1PL0 Copyright (c) Steve Scherf et al.
# Submitted via: CDex 1.51
#
DISCID=8511bb0a
DTITLE=Various Artist - The Dawn of a New Age Disc 4
DYEAR=1999
DGENRE=New Age
TTITLE0=Ishyara - Clouds of Indigo
TTITLE1=Pure - Feline Dreams
TTITLE2=Crystal Moon - Lotus
TTITLE3=Twilight Pilot - Gaia
TTITLE4=Mystery Piano - Crystal Moon
TTITLE5=Hyperborea - Adrift
TTITLE6=Music of Planet Earth - O-Head
TTITLE7=Alien Mutation - Water
TTITLE8=Fresh Air - Serenity
TTITLE9=The Pygmies - Sleep
EXTD=YEAR: 1999
EXTT0=
EXTT1=
EXTT2=
EXTT3=
EXTT4=
EXTT5=
EXTT6=
EXTT7=
EXTT8=
EXTT9=
PLAYORDER=
